<?xml version="1.0" encoding="UTF-8"?>
<svg width="2564px" height="1024px" viewBox="0 0 2564 1024" version="1.1" xmlns="http://www.w3.org/2000/svg" xmlns:xlink="http://www.w3.org/1999/xlink">
    <title>logo-violet</title>
    <defs>
        <linearGradient x1="66.0716031%" y1="106.43771%" x2="4.02625087%" y2="-14.9259259%" id="linearGradient-1">
            <stop stop-color="#7D43FF" offset="0%"></stop>
            <stop stop-color="#FFFFFF" offset="100%"></stop>
        </linearGradient>
        <linearGradient x1="60.0702185%" y1="4.42746035%" x2="9.45136282%" y2="107.844854%" id="linearGradient-2">
            <stop stop-color="#FFFFFF" offset="0%"></stop>
            <stop stop-color="#7D43FF" offset="100%"></stop>
        </linearGradient>
    </defs>
    <g id="Kin-Logo" stroke="none" stroke-width="1" fill="none" fill-rule="evenodd">
        <g id="logo-violet" fill-rule="nonzero">
            <g id="Letters" transform="translate(1161.000000, 52.000000)" fill="#7546F6">
                <polygon id="Path" points="0 48.8194228 172.913347 0 172.913347 596.149885 175.183875 597.296198 370.852961 358.981219 567.68254 358.981219 353.798771 609.838204 583.609876 920 378.841857 920 175.183875 633.775905 172.913347 634.922217 172.913347 920 0 920"></polygon>
                <path d="M712.913234,82.65625 C767.767472,82.65625 813.465258,127.085085 813.465258,181.770614 C813.465258,236.456144 767.767472,280.884979 712.913234,280.884979 C658.058997,280.884979 612.344317,236.472986 612.344317,181.770614 C612.344317,127.068243 658.058997,82.65625 712.913234,82.65625 Z M626.062099,359.502796 L799.747476,359.502796 L799.747476,920 L626.062099,920 L626.062099,359.502796 L626.062099,359.502796 Z" id="Shape"></path>
                <path d="M859.253885,358.4519 L1030.44192,358.4519 L1030.44192,409.81311 L1032.71948,410.960469 C1076.09432,375.577928 1135.4458,345.898438 1206.18508,345.898438 C1265.51969,345.898438 1318.02163,366.449671 1353.3997,402.979572 C1387.63056,439.4926 1402.46,488.575963 1402.46,569.616663 L1402.46,920 L1229.01127,920 L1229.01127,598.148793 C1229.01127,555.915841 1223.29207,535.381481 1209.60985,519.38594 C1194.76354,502.276785 1174.23178,495.426374 1150.25837,495.426374 C1105.75319,495.426374 1063.54244,518.23858 1032.71948,542.215019 L1032.71948,920 L859.270756,920 L859.270756,358.4519 L859.253885,358.4519 Z" id="Path"></path>
            </g>
            <g id="Icon">
                <polygon id="Path" fill="#7546F6" points="886 255.98 443 511.99862 885.982777 768"></polygon>
                <polygon id="Path" fill="url(#linearGradient-1)" points="886 768 443 512 443 1024"></polygon>
                <polygon id="Path" fill="url(#linearGradient-2)" points="443 0 443 512 886 255.991381"></polygon>
                <polygon id="Path" fill="#7546F6" points="0 255.99569 0 768.00431 443.2 1024 443.2 0"></polygon>
            </g>
        </g>
    </g>
</svg>